<?xml version="1.0" standalone="no"?>
<!DOCTYPE svg PUBLIC "-//W3C//DTD SVG 20010904//EN"
 "http://www.w3.org/TR/2001/REC-SVG-20010904/DTD/svg10.dtd">
<svg version="1.0" xmlns="http://www.w3.org/2000/svg"
 width="152.000000pt" height="152.000000pt" viewBox="0 0 152.000000 152.000000"
 preserveAspectRatio="xMidYMid meet">
<metadata>
Created by potrace 1.11, written by Peter Selinger 2001-2013
</metadata>
<g transform="translate(0.000000,152.000000) scale(0.100000,-0.100000)"
fill="#000000" stroke="none">
<path d="M271 1475 c-6 -24 -11 -73 -11 -108 l0 -64 -57 -39 c-285 -197 -178
-515 215 -634 l72 -22 0 -304 0 -305 293 3 294 3 48 30 c59 36 106 96 130 162
30 83 101 129 135 87 8 -9 25 -14 44 -12 23 2 33 10 40 31 9 24 6 31 -21 59
-60 60 -184 46 -242 -28 -11 -15 -30 -53 -42 -85 -22 -61 -74 -124 -115 -139
-13 -5 -37 -7 -52 -4 l-28 6 -38 231 c-20 128 -39 239 -42 248 -4 13 11 22 68
39 214 65 358 195 375 339 12 101 -48 216 -150 288 l-54 38 -6 81 c-3 45 -12
97 -20 115 l-13 34 -79 -77 -79 -78 -41 12 c-53 16 -357 17 -408 1 l-38 -12
-62 63 c-34 35 -72 68 -83 74 -20 11 -23 8 -33 -33z m93 -48 c25 -24 46 -48
46 -53 0 -11 -116 -55 -124 -46 -4 3 -4 22 -1 41 3 20 8 51 11 69 3 17 9 32
13 32 5 0 29 -19 55 -43z m734 -42 c6 -76 13 -73 -83 -36 l-50 19 54 52 c35
35 56 49 63 42 6 -6 13 -40 16 -77z m-599 -278 c64 -31 73 -52 38 -82 -37 -32
-96 -47 -187 -47 -127 0 -221 40 -206 89 21 67 249 92 355 40z m557 20 c81
-17 116 -40 112 -74 -12 -101 -394 -102 -406 -1 -4 34 30 58 107 74 74 16 113
16 187 1z m-348 -203 c25 -17 21 -31 -14 -44 -20 -8 -24 -17 -24 -48 0 -50 23
-82 60 -82 21 0 35 8 46 25 20 30 31 26 14 -5 -17 -32 -56 -43 -91 -26 -25 13
-33 13 -57 0 -40 -21 -102 7 -102 45 1 12 3 11 12 -4 15 -27 28 -35 59 -35 37
0 49 18 49 76 0 49 -1 52 -30 58 -36 7 -40 33 -7 46 34 13 60 12 85 -6z m-325
-61 c-23 -2 -64 -2 -90 0 -26 2 -7 3 42 3 50 0 71 -1 48 -3z m680 0 c-24 -2
-62 -2 -85 0 -24 2 -5 4 42 4 47 0 66 -2 43 -4z m-665 -63 c-15 -4 -51 -10
-80 -13 l-53 -6 55 13 c30 8 66 14 80 14 l25 0 -27 -8z m623 -1 c38 -7 69 -15
69 -19 0 -6 -68 4 -145 23 -40 9 8 7 76 -4z"/>
<path d="M386 1094 c-9 -23 -7 -67 3 -83 13 -20 37 -7 45 22 12 50 -31 105
-48 61z"/>
<path d="M1000 1084 c-12 -31 -3 -74 17 -81 19 -7 33 14 33 49 0 59 -32 80
-50 32z"/>
</g>
</svg>
